<svg width="22" height="22" viewBox="0 0 22 22" fill="none" xmlns="http://www.w3.org/2000/svg">
<g clip-path="url(#clip0_2_3103)">
<path d="M15.2074 8.25H13.7499V3.66667C13.7499 3.1625 13.3374 2.75 12.8333 2.75H9.16658C8.66242 2.75 8.24992 3.1625 8.24992 3.66667V8.25H6.79242C5.97659 8.25 5.56409 9.24 6.14158 9.8175L10.3491 14.025C10.7066 14.3825 11.2841 14.3825 11.6416 14.025L15.8491 9.8175C16.4266 9.24 16.0233 8.25 15.2074 8.25ZM4.58325 17.4167C4.58325 17.9208 4.99575 18.3333 5.49992 18.3333H16.4999C17.0041 18.3333 17.4166 17.9208 17.4166 17.4167C17.4166 16.9125 17.0041 16.5 16.4999 16.5H5.49992C4.99575 16.5 4.58325 16.9125 4.58325 17.4167Z" fill="#4D4D4D"/>
</g>
<defs>
<clipPath id="clip0_2_3103">
<rect width="22" height="22" fill="white"/>
</clipPath>
</defs>
</svg>
