<?xml version="1.0" standalone="no"?>
<!DOCTYPE svg PUBLIC "-//W3C//DTD SVG 20010904//EN"
 "http://www.w3.org/TR/2001/REC-SVG-20010904/DTD/svg10.dtd">
<svg version="1.0" xmlns="http://www.w3.org/2000/svg"
 width="3000.000000pt" height="2000.000000pt" viewBox="0 0 3000.000000 2000.000000"
 preserveAspectRatio="xMidYMid meet">

<g transform="translate(0.000000,2000.000000) scale(0.100000,-0.100000)"
fill="#000000" stroke="none">
<path d="M14430 16650 c-1243 -73 -2293 -271 -3430 -649 -216 -72 -654 -231
-682 -247 -10 -6 61 -164 164 -366 l89 -177 82 36 c1013 435 2154 716 3302
813 602 50 1378 54 1980 10 1161 -86 2295 -356 3356 -800 l136 -56 17 30 c36
61 179 350 212 428 l34 79 -28 10 c-514 203 -1124 398 -1657 529 -762 187
-1436 292 -2265 351 -195 14 -1117 20 -1310 9z"/>
<path d="M13955 15753 c-730 -37 -1645 -216 -2405 -470 -286 -95 -820 -310
-820 -330 0 -3 25 -40 56 -82 87 -117 312 -335 456 -442 193 -143 463 -298
676 -389 62 -27 66 -24 76 50 9 68 51 185 85 239 154 239 457 339 1131 371
113 5 264 10 336 10 129 0 132 -1 137 -22 3 -13 299 -1663 658 -3668 358
-2005 655 -3648 658 -3652 3 -4 294 1612 645 3590 352 1978 646 3632 654 3675
l14 77 107 0 c309 0 733 -30 926 -66 299 -56 499 -172 588 -342 37 -71 77
-197 77 -245 0 -15 6 -30 13 -33 18 -7 215 83 366 168 262 147 494 321 671
504 113 117 217 251 204 263 -31 30 -546 235 -815 325 -704 235 -1555 409
-2234 456 -88 6 -179 12 -203 14 l-43 4 -482 -589 c-265 -323 -484 -588 -487
-588 -3 0 -223 265 -488 589 -266 325 -487 589 -490 588 -4 -1 -34 -3 -67 -5z"/>
<path d="M12180 4667 c0 -33 57 -121 110 -170 96 -89 78 -87 655 -87 577 0
559 -2 655 87 53 49 110 137 110 170 0 11 -143 13 -765 13 -622 0 -765 -2
-765 -13z"/>
<path d="M9855 4648 c14 -46 55 -105 104 -151 84 -79 94 -81 361 -87 l235 -5
3 -532 2 -533 130 0 130 0 2 533 3 532 235 5 c230 5 236 6 285 32 77 40 157
132 179 206 l7 22 -841 0 -841 0 6 -22z"/>
<path d="M14470 4280 l0 -390 598 -2 597 -3 0 -140 0 -140 -490 -5 -490 -5
-64 -33 c-35 -19 -86 -55 -114 -80 -50 -47 -107 -118 -107 -134 0 -4 342 -8
760 -8 l760 0 0 400 0 400 -597 2 -598 3 -3 133 -3 132 461 0 c423 0 464 1
508 18 99 38 192 122 227 205 l15 37 -730 0 -730 0 0 -390z"/>
<path d="M16670 4005 l0 -665 600 0 c588 0 602 0 641 21 77 39 148 127 174
217 l6 22 -580 0 -581 0 0 535 0 535 -130 0 -130 0 0 -665z"/>
<path d="M18620 4660 c0 -6 12 -33 26 -61 33 -67 102 -134 167 -165 l52 -24
511 0 c444 0 517 2 558 16 64 22 158 110 191 179 14 30 25 56 25 59 0 3 -344
6 -765 6 -520 0 -765 -3 -765 -10z"/>
<path d="M12180 4137 c0 -33 57 -121 110 -170 96 -89 78 -87 655 -87 577 0
559 -2 655 87 53 49 110 137 110 170 0 11 -143 13 -765 13 -622 0 -765 -2
-765 -13z"/>
<path d="M18650 3740 l0 -400 130 0 130 0 0 270 0 270 475 0 475 0 0 -270 0
-270 130 0 130 0 0 400 0 400 -735 0 -735 0 0 -400z"/>
<path d="M12180 3590 c0 -22 52 -112 85 -149 19 -21 61 -52 94 -70 l59 -31
526 0 c523 0 527 0 574 22 79 37 160 131 186 216 l7 22 -765 0 c-521 0 -766
-3 -766 -10z"/>
</g>
</svg>
